<?xml version="1.0" encoding="UTF-8" standalone="no"?>
<!DOCTYPE svg PUBLIC "-//W3C//DTD SVG 1.1//EN" "http://www.w3.org/Graphics/SVG/1.1/DTD/svg11.dtd">
<svg width="100%" height="100%" viewBox="0 0 277 44" version="1.1" xmlns="http://www.w3.org/2000/svg" xmlns:xlink="http://www.w3.org/1999/xlink" xml:space="preserve" xmlns:serif="http://www.serif.com/" style="fill-rule:evenodd;clip-rule:evenodd;stroke-linejoin:round;stroke-miterlimit:2;">
    <g transform="matrix(1,0,0,1,-119.83,-72.3302)">
        <g transform="matrix(1,0,0,7.1821,0,0)">
            <g transform="matrix(1,0,0,0.704539,3.90621,-11.1587)">
                <g transform="matrix(1,0,0,0.197626,-2462.8,13.343)">
                    <path d="M2584.43,121.041L2584.43,91.076C2584.43,91.076 2604.41,87.532 2608.28,97.842C2612.14,108.153 2605.7,126.84 2587.33,124.263C2587.33,124.263 2584.11,126.518 2584.43,121.041Z" style="fill:rgb(48,216,164);"/>
                </g>
                <g transform="matrix(5.00147,0,0,0.988419,-12772.3,-53.6088)">
                    <path d="M2579.68,91.789C2580.61,91.789 2581.29,91.562 2581.73,91.109C2582.17,90.656 2582.39,89.947 2582.39,88.982C2582.39,88.096 2582.15,87.406 2581.67,86.914C2581.19,86.422 2580.52,86.176 2579.66,86.176L2578.57,86.176L2578.57,91.789L2579.68,91.789ZM2579.79,93.254L2576.89,93.254L2576.89,84.723L2579.74,84.723C2580.52,84.723 2581.14,84.801 2581.6,84.957C2582.07,85.113 2582.49,85.375 2582.87,85.742C2583.27,86.133 2583.57,86.605 2583.78,87.16C2583.99,87.715 2584.09,88.338 2584.09,89.029C2584.09,89.803 2583.95,90.495 2583.66,91.106C2583.37,91.718 2582.95,92.221 2582.4,92.615C2582.09,92.846 2581.74,93.01 2581.35,93.107C2580.96,93.205 2580.44,93.254 2579.79,93.254Z" style="fill:white;fill-rule:nonzero;"/>
                    <path d="M2589.79,89.316C2589.66,88.887 2589.45,88.559 2589.14,88.335C2588.84,88.11 2588.46,87.998 2588,87.998C2587.6,87.998 2587.24,88.119 2586.93,88.361C2586.61,88.603 2586.4,88.922 2586.29,89.316L2589.79,89.316ZM2586.24,90.506C2586.29,90.971 2586.47,91.337 2586.79,91.604C2587.11,91.872 2587.52,92.006 2588.02,92.006C2588.36,92.006 2588.66,91.935 2588.93,91.795C2589.2,91.654 2589.41,91.457 2589.56,91.203L2591.18,91.203C2590.91,91.906 2590.5,92.452 2589.95,92.841C2589.41,93.229 2588.78,93.424 2588.06,93.424C2587.58,93.424 2587.14,93.339 2586.74,93.169C2586.33,92.999 2585.97,92.748 2585.65,92.416C2585.35,92.099 2585.11,91.733 2584.94,91.317C2584.77,90.901 2584.69,90.474 2584.69,90.037C2584.69,89.588 2584.77,89.165 2584.92,88.768C2585.08,88.372 2585.3,88.016 2585.6,87.699C2585.93,87.351 2586.3,87.084 2586.72,86.896C2587.13,86.709 2587.56,86.615 2588,86.615C2588.56,86.615 2589.08,86.742 2589.56,86.996C2590.05,87.25 2590.46,87.607 2590.8,88.068C2591.01,88.346 2591.16,88.656 2591.26,89C2591.36,89.344 2591.41,89.738 2591.41,90.183C2591.41,90.219 2591.41,90.272 2591.4,90.345C2591.4,90.417 2591.4,90.471 2591.4,90.506L2586.24,90.506Z" style="fill:white;fill-rule:nonzero;"/>
                    <path d="M2593.81,86.808L2593.81,87.541C2594.03,87.248 2594.28,87.031 2594.57,86.891C2594.85,86.75 2595.17,86.68 2595.53,86.68C2596,86.68 2596.41,86.767 2596.75,86.943C2597.1,87.119 2597.38,87.383 2597.62,87.734C2597.76,87.969 2597.87,88.235 2597.93,88.534C2598,88.833 2598.03,89.269 2598.03,89.844L2598.03,93.254L2596.53,93.254L2596.53,90.4C2596.53,89.537 2596.43,88.945 2596.23,88.625C2596.03,88.305 2595.69,88.144 2595.2,88.144C2594.7,88.144 2594.34,88.321 2594.12,88.675C2593.9,89.028 2593.8,89.635 2593.8,90.494L2593.8,93.254L2592.35,93.254L2592.35,86.808L2593.81,86.808Z" style="fill:white;fill-rule:nonzero;"/>
                    <path d="M2600.49,89.99C2600.49,90.588 2600.66,91.061 2600.98,91.411C2601.31,91.761 2601.76,91.935 2602.32,91.935C2602.88,91.935 2603.32,91.757 2603.65,91.399C2603.98,91.042 2604.14,90.56 2604.14,89.955C2604.14,89.412 2603.97,88.966 2603.62,88.616C2603.28,88.266 2602.84,88.092 2602.32,88.092C2601.78,88.092 2601.34,88.268 2601,88.622C2600.66,88.975 2600.49,89.432 2600.49,89.99ZM2598.95,90.002C2598.95,89.549 2599.03,89.118 2599.19,88.71C2599.36,88.302 2599.6,87.939 2599.92,87.623C2600.24,87.299 2600.61,87.05 2601.01,86.876C2601.42,86.702 2601.84,86.615 2602.28,86.615C2602.74,86.615 2603.17,86.692 2603.57,86.847C2603.96,87.001 2604.32,87.232 2604.65,87.541C2604.98,87.865 2605.24,88.239 2605.43,88.663C2605.61,89.087 2605.7,89.521 2605.7,89.967C2605.7,90.459 2605.62,90.908 2605.46,91.314C2605.3,91.721 2605.06,92.088 2604.74,92.416C2604.42,92.748 2604.05,92.999 2603.64,93.169C2603.23,93.339 2602.79,93.424 2602.31,93.424C2601.82,93.424 2601.38,93.338 2600.98,93.166C2600.59,92.994 2600.22,92.736 2599.89,92.392C2599.58,92.057 2599.35,91.686 2599.18,91.282C2599.03,90.878 2598.95,90.451 2598.95,90.002Z" style="fill:white;fill-rule:nonzero;"/>
                    <path d="M2611.28,89.099C2611.1,88.764 2610.87,88.512 2610.59,88.344C2610.31,88.176 2609.98,88.092 2609.6,88.092C2609.09,88.092 2608.66,88.275 2608.32,88.642C2607.98,89.01 2607.81,89.471 2607.81,90.025C2607.81,90.572 2607.99,91.027 2608.34,91.391C2608.68,91.754 2609.12,91.935 2609.65,91.935C2610.06,91.935 2610.39,91.849 2610.66,91.675C2610.93,91.501 2611.13,91.24 2611.27,90.892L2612.87,90.892C2612.67,91.682 2612.29,92.301 2611.72,92.75C2611.16,93.199 2610.47,93.424 2609.66,93.424C2609.18,93.424 2608.74,93.339 2608.34,93.169C2607.93,92.999 2607.56,92.748 2607.24,92.416C2606.93,92.103 2606.69,91.737 2606.52,91.317C2606.35,90.897 2606.26,90.471 2606.26,90.037C2606.26,89.584 2606.34,89.16 2606.5,88.766C2606.65,88.371 2606.88,88.016 2607.19,87.699C2607.53,87.344 2607.9,87.074 2608.33,86.891C2608.75,86.707 2609.2,86.615 2609.68,86.615C2610.47,86.615 2611.16,86.84 2611.74,87.289C2612.31,87.738 2612.7,88.342 2612.88,89.099L2611.28,89.099Z" style="fill:rgb(48,216,164);fill-rule:nonzero;"/>
                    <path d="M2615.06,89.978C2615.06,90.521 2615.24,90.975 2615.6,91.341C2615.96,91.706 2616.4,91.889 2616.92,91.889C2617.39,91.889 2617.81,91.705 2618.17,91.338C2618.53,90.971 2618.71,90.541 2618.71,90.049C2618.71,89.525 2618.53,89.075 2618.17,88.698C2617.8,88.321 2617.38,88.133 2616.9,88.133C2616.39,88.133 2615.96,88.311 2615.6,88.669C2615.24,89.026 2615.06,89.463 2615.06,89.978ZM2618.88,93.254L2618.88,92.463C2618.7,92.783 2618.45,93.019 2618.12,93.172C2617.79,93.324 2617.38,93.4 2616.87,93.4C2615.92,93.4 2615.12,93.075 2614.48,92.425C2613.84,91.774 2613.52,90.967 2613.52,90.002C2613.52,89.549 2613.6,89.119 2613.76,88.713C2613.92,88.307 2614.15,87.949 2614.45,87.641C2614.77,87.301 2615.12,87.05 2615.51,86.888C2615.91,86.725 2616.35,86.644 2616.83,86.644C2617.3,86.644 2617.71,86.723 2618.04,86.879C2618.38,87.035 2618.65,87.271 2618.86,87.588L2618.86,86.808L2620.33,86.808L2620.33,93.254L2618.88,93.254Z" style="fill:rgb(48,216,164);fill-rule:nonzero;"/>
                    <path d="M2622.62,91.115L2622.62,91.203C2622.62,91.488 2622.7,91.72 2622.84,91.897C2622.98,92.075 2623.17,92.164 2623.4,92.164C2623.62,92.164 2623.8,92.098 2623.94,91.965C2624.08,91.832 2624.15,91.662 2624.15,91.455C2624.15,91.264 2624.1,91.106 2623.99,90.983C2623.89,90.86 2623.71,90.736 2623.45,90.611C2623.3,90.545 2623.08,90.453 2622.79,90.336C2622.5,90.219 2622.32,90.127 2622.24,90.06C2622,89.865 2621.82,89.647 2621.71,89.407C2621.6,89.167 2621.54,88.892 2621.54,88.584C2621.54,88.041 2621.73,87.582 2622.11,87.207C2622.49,86.832 2622.95,86.644 2623.5,86.644C2624.07,86.644 2624.52,86.81 2624.86,87.142C2625.19,87.474 2625.38,87.939 2625.41,88.537L2624.06,88.537L2624.06,88.502C2624.06,88.295 2624,88.133 2623.9,88.016C2623.79,87.898 2623.64,87.84 2623.45,87.84C2623.28,87.84 2623.14,87.897 2623.03,88.013C2622.92,88.128 2622.86,88.271 2622.86,88.443C2622.86,88.724 2623.15,88.986 2623.73,89.228C2623.88,89.291 2624,89.34 2624.08,89.375C2624.64,89.625 2625.01,89.893 2625.22,90.181C2625.42,90.468 2625.52,90.855 2625.52,91.344C2625.52,91.945 2625.32,92.442 2624.91,92.835C2624.51,93.227 2624,93.424 2623.38,93.424C2622.76,93.424 2622.26,93.217 2621.88,92.803C2621.49,92.389 2621.29,91.828 2621.25,91.121L2622.62,91.115Z" style="fill:rgb(48,216,164);fill-rule:nonzero;"/>
                    <path d="M2628,84.723L2628,87.541C2628.22,87.248 2628.47,87.031 2628.75,86.891C2629.04,86.75 2629.36,86.68 2629.72,86.68C2630.53,86.68 2631.15,86.927 2631.58,87.421C2632.01,87.915 2632.22,88.627 2632.22,89.557L2632.22,93.254L2630.72,93.254L2630.72,90.412C2630.72,89.529 2630.62,88.931 2630.42,88.616C2630.23,88.302 2629.88,88.144 2629.39,88.144C2628.89,88.144 2628.53,88.321 2628.31,88.675C2628.09,89.028 2627.98,89.635 2627.98,90.494L2627.98,93.254L2626.54,93.254L2626.54,84.723L2628,84.723Z" style="fill:rgb(48,216,164);fill-rule:nonzero;"/>
                </g>
            </g>
        </g>
    </g>
</svg>
