<?xml version="1.0" encoding="UTF-8" standalone="no"?>
<!DOCTYPE svg PUBLIC "-//W3C//DTD SVG 1.1//EN" "http://www.w3.org/Graphics/SVG/1.1/DTD/svg11.dtd">
<svg width="100%" height="100%" viewBox="0 0 548 453" version="1.1" xmlns="http://www.w3.org/2000/svg" xmlns:xlink="http://www.w3.org/1999/xlink" xml:space="preserve" xmlns:serif="http://www.serif.com/" style="fill-rule:evenodd;clip-rule:evenodd;stroke-linejoin:round;stroke-miterlimit:2;">
    <g transform="matrix(1,0,0,1,-313.992,-5691.94)">
        <g transform="matrix(1,0,0,7.1821,0,0)">
            <g transform="matrix(0.921166,0,0,1.03616,-729.794,61.2301)">
                <g transform="matrix(1,0,0,0.123782,0,0)">
                    <ellipse cx="1456.28" cy="5998.58" rx="270.796" ry="193.865" style="fill:rgb(175,130,179);fill-opacity:0.1;"/>
                </g>
                <g transform="matrix(0.610993,0,0,0.0756301,414.662,286.62)">
                    <ellipse cx="1456.28" cy="5998.58" rx="270.796" ry="193.865" style="fill:rgb(0,232,160);fill-opacity:0.1;"/>
                </g>
                <g transform="matrix(0.471251,0,0,0.0583325,828.102,679.832)">
                    <path d="M1103.67,524.103L1065.95,524.103L1065.95,489.279L1047.93,489.279L1047.93,524.103L1010.21,524.103L1010.21,1002.75L1047.93,1002.75L1047.93,1097.02L1065.95,1097.02L1065.95,1002.75L1103.67,1002.75L1103.67,524.103Z" style="fill:rgb(0,255,176);fill-rule:nonzero;"/>
                </g>
                <g transform="matrix(0.471251,0,0,0.0583325,828.102,679.832)">
                    <path d="M1330.38,778.205L1292.65,778.205L1292.65,586.466L1274.63,586.466L1274.63,778.205L1236.91,778.205L1236.91,1061.52L1274.63,1061.52L1274.63,1194.21L1292.65,1194.21L1292.65,1061.52L1330.38,1061.52L1330.38,778.205Z" style="fill:rgb(175,130,179);fill-rule:nonzero;"/>
                </g>
                <g transform="matrix(0.471251,0,0,0.0583325,828.102,679.832)">
                    <path d="M1541.49,936.54L1503.77,936.54L1503.77,567.888L1485.75,567.888L1485.75,936.54L1448.03,936.54L1448.03,1030.01L1485.75,1030.01L1485.75,1072.25L1503.77,1072.25L1503.77,1030.01L1541.49,1030.01L1541.49,936.54Z" style="fill:rgb(175,130,179);fill-rule:nonzero;"/>
                </g>
                <g transform="matrix(0.471251,0,0,0.0583325,828.102,679.832)">
                    <path d="M1766.67,610.87L1728.95,610.87L1728.95,526.022L1710.93,526.022L1710.93,610.87L1673.21,610.87L1673.21,765.464L1710.93,765.464L1710.93,1030.39L1728.95,1030.39L1728.95,765.464L1766.67,765.464L1766.67,610.87Z" style="fill:rgb(0,255,176);fill-rule:nonzero;"/>
                </g>
                <g transform="matrix(0.471251,0,0,0.0583325,828.102,679.832)">
                    <path d="M1448.03,1466.38C1448.03,1471.93 1268.76,1476.44 1047.63,1476.44C826.503,1476.44 647.242,1471.93 647.242,1466.38C647.242,1460.82 826.503,1456.31 1047.63,1456.31C1268.76,1456.31 1448.03,1460.82 1448.03,1466.38Z" style="fill:rgb(7,25,37);fill-rule:nonzero;"/>
                </g>
                <g transform="matrix(0.471251,0,0,0.0583325,828.102,679.832)">
                    <path d="M1027.55,708.421C1021.76,708.421 1015.96,708.011 1010.21,707.188L1010.21,524.103L1047.93,524.103L1047.93,489.279L1065.95,489.279L1065.95,524.103L1103.67,524.103L1103.67,681.809C1081.63,699.438 1054.64,708.421 1027.55,708.421Z" style="fill:rgb(0,232,160);"/>
                </g>
                <g transform="matrix(0.471251,0,0,0.0583325,828.102,679.832)">
                    <path d="M945.473,693.801C891.201,646.52 885.514,563.899 932.796,509.628C980.077,455.356 1062.7,449.668 1116.97,496.95C1171.24,544.232 1176.93,626.853 1129.65,681.125C1082.37,735.396 999.745,741.083 945.473,693.801ZM1144.97,694.475C1199.61,631.754 1193.04,536.269 1130.32,481.626C1067.6,426.982 972.114,433.555 917.471,496.277C866.851,554.381 868.802,640.578 919.223,696.4C918.858,696.755 918.496,697.116 918.156,697.507L755.157,884.604C748.568,892.167 749.358,903.64 756.921,910.229C764.484,916.818 775.958,916.029 782.547,908.465L945.545,721.369C945.886,720.978 946.195,720.57 946.496,720.16C1008.7,762.457 1094.35,752.58 1144.97,694.475Z" style="fill:rgb(175,130,179);fill-rule:nonzero;"/>
                </g>
                <g transform="matrix(0.471251,0,0,0.0583325,828.102,679.832)">
                    <path d="M868.471,621.659L811.891,628.104L819.698,659.667L813.671,727.609L851.032,730.725L852.964,683.903C861.869,686.047 874.132,686.628 873.395,680.151L871.651,664.845L877.112,663.97C878.088,663.814 878.662,662.786 878.284,661.873L871.39,645.222L868.471,621.659Z" style="fill:rgb(0,255,176);fill-rule:nonzero;"/>
                </g>
                <g transform="matrix(0.471251,0,0,0.0583325,828.102,679.832)">
                    <path d="M868.935,625.406L851.907,629.394C851.907,629.394 852.94,648.618 848.6,651.512C844.259,654.406 819.698,659.667 819.698,659.667C819.698,659.667 803.951,630.667 805.398,621.659C806.845,612.651 814.7,605.83 829.789,604.177C844.879,602.523 865.549,604.177 865.549,604.177C865.549,604.177 877.281,613.356 868.935,625.406Z" style="fill:rgb(7,37,65);fill-rule:nonzero;"/>
                </g>
                <g transform="matrix(0.471251,0,0,0.0583325,828.102,679.832)">
                    <path d="M854.585,644.436C853.233,646.778 849.094,646.919 845.341,644.752C841.587,642.585 839.64,638.929 840.992,636.588C842.344,634.246 846.483,634.104 850.237,636.272C853.99,638.439 855.937,642.094 854.585,644.436Z" style="fill:rgb(23,65,113);fill-rule:nonzero;"/>
                </g>
                <g transform="matrix(1,0,0,0.123782,0,0)">
                    <path d="M1206.61,5957.01C1203.02,5956.65 1199.54,5956.15 1196.21,5955.49L1207.6,5910.36L1204.87,5885.04L1194.74,5896.66L1198.42,5842.93C1198.9,5836.04 1201.92,5829.57 1206.92,5824.78L1210.71,5821.15L1229.79,5821.15C1229.79,5821.15 1253.05,5831.91 1259.27,5840.45L1294.88,5877.87C1294.88,5877.87 1311.92,5854.41 1341.54,5838.91L1348.13,5844.89L1299.1,5901.36C1297.08,5903.49 1294.27,5904.69 1291.33,5904.69C1288.95,5904.69 1286.64,5903.9 1284.77,5902.44L1271.52,5892.15C1277.47,5921.16 1283.5,5951.94 1283.5,5951.94C1283.5,5951.94 1281.05,5952.42 1276.86,5953.11C1295.2,6042.23 1304.04,6167.42 1304.04,6167.42L1287.51,6167.42L1244.11,5985.17C1234.24,6070.44 1212.79,6168.03 1212.79,6168.03L1196.21,6168.22L1206.61,5957.01Z" style="fill:rgb(7,25,37);fill-rule:nonzero;"/>
                </g>
                <g transform="matrix(0.471251,0,0,0.0583325,828.102,679.832)">
                    <path d="M1091.37,737.499L1092.15,733.04C1092.98,728.292 1094.68,723.738 1097.16,719.607C1098.49,720.124 1099.31,721.472 1099.15,722.889L1098.29,730.505L1115.44,720.842L1113.81,728.283C1112.74,733.166 1110.05,737.539 1106.16,740.686L1100.2,745.518L1091.37,737.499Z" style="fill:rgb(0,255,176);fill-rule:nonzero;"/>
                </g>
                <g transform="matrix(0.471251,0,0,0.0583325,828.102,679.832)">
                    <path d="M1002.95,1430.46L1019.6,1446.51L1042.14,1453.89C1048.87,1456.09 1054.66,1460.49 1058.58,1466.38L996.551,1466.38L992.284,1459.98L987.408,1466.38L977.654,1466.38C975.241,1454.53 975.241,1442.31 977.654,1430.46L1002.95,1430.46Z" style="fill:rgb(175,130,179);fill-rule:nonzero;"/>
                </g>
                <g transform="matrix(0.471251,0,0,0.0583325,828.102,679.832)">
                    <path d="M811.056,1430.46L827.705,1446.51L850.245,1453.89C856.971,1456.09 862.761,1460.49 866.687,1466.38L804.656,1466.38L800.389,1459.98L795.512,1466.38L785.759,1466.38C783.345,1454.53 783.345,1442.31 785.759,1430.46L811.056,1430.46Z" style="fill:rgb(175,130,179);fill-rule:nonzero;"/>
                </g>
                <g transform="matrix(0.471251,0,0,0.0583325,828.102,679.832)">
                    <path d="M940.942,848.809L902.575,819.008L944.546,866.443L940.942,848.809Z" style="fill:rgb(58,113,151);fill-rule:nonzero;"/>
                </g>
                <g transform="matrix(0.471251,0,0,0.0583325,828.102,679.832)">
                    <path d="M1188.3,1314.33C1188.3,1310.18 1191.68,1306.79 1195.84,1306.79L1229.37,1306.79C1233.53,1306.79 1236.91,1310.18 1236.91,1314.33L1236.91,1324.69L1188.3,1324.69L1188.3,1314.33ZM1313.27,1324.69L1241.78,1324.69L1241.78,1314.33C1241.78,1307.49 1236.21,1301.92 1229.37,1301.92L1195.84,1301.92C1188.99,1301.92 1183.43,1307.49 1183.43,1314.33L1183.43,1324.69L1111.93,1324.69C1107.69,1324.69 1104.26,1328.13 1104.26,1332.37L1104.26,1458.7C1104.26,1462.94 1107.69,1466.38 1111.93,1466.38L1313.27,1466.38C1317.51,1466.38 1320.95,1462.94 1320.95,1458.7L1320.95,1332.37C1320.95,1328.13 1317.51,1324.69 1313.27,1324.69Z" style="fill:rgb(175,130,179);fill-rule:nonzero;"/>
                </g>
                <g transform="matrix(0.471251,0,0,0.0583325,828.102,679.832)">
                    <path d="M1214.67,1404.05L1203.72,1404.05C1200.9,1404.05 1198.62,1401.77 1198.62,1398.95L1198.62,1392.11C1198.62,1389.3 1200.9,1387.02 1203.72,1387.02L1214.67,1387.02C1217.48,1387.02 1219.77,1389.3 1219.77,1392.11L1219.77,1398.95C1219.77,1401.77 1217.48,1404.05 1214.67,1404.05Z" style="fill:rgb(23,65,113);fill-rule:nonzero;"/>
                </g>
            </g>
        </g>
    </g>
</svg>
