<?xml version="1.0" encoding="UTF-8" standalone="no"?>
<!DOCTYPE svg PUBLIC "-//W3C//DTD SVG 1.1//EN" "http://www.w3.org/Graphics/SVG/1.1/DTD/svg11.dtd">
<svg width="100%" height="100%" viewBox="0 0 61 61" version="1.1" xmlns="http://www.w3.org/2000/svg" xmlns:xlink="http://www.w3.org/1999/xlink" xml:space="preserve" xmlns:serif="http://www.serif.com/" style="fill-rule:evenodd;clip-rule:evenodd;stroke-linejoin:round;stroke-miterlimit:2;">
    <g transform="matrix(1,0,0,1,-274.904,-7446.42)">
        <g transform="matrix(1,0,0,7.1821,0,0)">
            <g transform="matrix(0.852963,0,0,0.118762,-568.587,967.814)">
                <g transform="matrix(1,0,0,1,1020.32,582.536)">
                    <path d="M0,67.477L-29.787,37.69C-31.969,35.508 -31.969,31.969 -29.787,29.786L0,-0.001C2.183,-2.183 5.722,-2.183 7.904,-0.001L37.691,29.786C39.874,31.969 39.874,35.508 37.691,37.69L7.904,67.477C5.722,69.66 2.183,69.66 0,67.477" style="fill:rgb(48,216,164);fill-rule:nonzero;"/>
                </g>
                <g transform="matrix(1,0,0,1,1036.76,622.18)">
                    <path d="M0,-11.811C0.013,-11.558 0.016,-11.299 0.016,-11.033C0.016,-3.197 -5.951,5.856 -16.88,5.856C-20.236,5.856 -23.354,4.873 -25.983,3.192C-25.513,3.237 -25.044,3.272 -24.57,3.272C-21.775,3.272 -19.226,2.329 -17.187,0.722C-19.788,0.673 -21.974,-1.041 -22.729,-3.402C-22.375,-3.318 -22.005,-3.294 -21.619,-3.294C-21.078,-3.294 -20.553,-3.358 -20.056,-3.502C-22.771,-4.043 -24.824,-6.437 -24.824,-9.308C-24.824,-9.349 -24.824,-9.359 -24.816,-9.4C-24.018,-8.953 -23.1,-8.686 -22.125,-8.654C-23.717,-9.707 -24.774,-11.524 -24.774,-13.592C-24.774,-14.684 -24.474,-15.709 -23.967,-16.572C-21.044,-12.988 -16.661,-10.613 -11.727,-10.368C-11.829,-10.815 -11.878,-11.267 -11.878,-11.723C-11.878,-15.002 -9.224,-17.667 -5.947,-17.667C-4.236,-17.667 -2.694,-16.946 -1.614,-15.797C-0.258,-16.055 1.019,-16.555 2.163,-17.228C1.716,-15.85 0.775,-14.684 -0.451,-13.939C0.752,-14.096 1.901,-14.399 2.964,-14.879C2.167,-13.693 1.156,-12.638 0,-11.811" style="fill:white;fill-rule:nonzero;"/>
                </g>
            </g>
        </g>
    </g>
</svg>
