<?xml version="1.0" encoding="UTF-8" standalone="no"?>
<!DOCTYPE svg PUBLIC "-//W3C//DTD SVG 1.1//EN" "http://www.w3.org/Graphics/SVG/1.1/DTD/svg11.dtd">
<svg width="100%" height="100%" viewBox="0 0 61 61" version="1.1" xmlns="http://www.w3.org/2000/svg" xmlns:xlink="http://www.w3.org/1999/xlink" xml:space="preserve" xmlns:serif="http://www.serif.com/" style="fill-rule:evenodd;clip-rule:evenodd;stroke-linejoin:round;stroke-miterlimit:2;">
    <g transform="matrix(1,0,0,1,-353.9,-7446.42)">
        <g transform="matrix(1,0,0,7.1821,0,0)">
            <g transform="matrix(0.852963,0,0,0.118762,-574.073,967.814)">
                <g transform="matrix(1,0,0,1,1119.36,582.536)">
                    <path d="M0,67.477L-29.786,37.69C-31.969,35.508 -31.969,31.969 -29.786,29.786L0,-0.001C2.183,-2.183 5.722,-2.183 7.904,-0.001L37.691,29.786C39.874,31.969 39.874,35.508 37.691,37.69L7.904,67.477C5.722,69.66 2.183,69.66 0,67.477" style="fill:rgb(48,216,164);fill-rule:nonzero;"/>
                </g>
                <g>
                    <g transform="matrix(1,0,0,1,1123.32,611.718)">
                        <path d="M0,9.114C-2.514,9.114 -4.56,7.071 -4.56,4.556C-4.56,2.044 -2.514,-0.002 0,-0.002C2.514,-0.002 4.559,2.044 4.559,4.556C4.559,7.071 2.513,9.114 0,9.114M0,-2.395C-3.834,-2.395 -6.953,0.723 -6.953,4.556C-6.953,8.39 -3.834,11.509 0,11.509C3.833,11.509 6.953,8.39 6.953,4.556C6.953,0.723 3.833,-2.395 0,-2.395" style="fill:white;fill-rule:nonzero;"/>
                    </g>
                    <g transform="matrix(1,0,0,1,1123.32,618.03)">
                        <path d="M0,-3.511C-0.462,-3.511 -0.914,-3.324 -1.239,-2.997C-1.567,-2.671 -1.756,-2.218 -1.756,-1.755C-1.756,-1.294 -1.566,-0.841 -1.239,-0.513C-0.914,-0.188 -0.462,0 0,0C0.463,0 0.915,-0.188 1.241,-0.513C1.569,-0.841 1.756,-1.295 1.756,-1.755C1.756,-2.218 1.569,-2.671 1.241,-2.997C0.916,-3.324 0.463,-3.511 0,-3.511" style="fill:white;fill-rule:nonzero;"/>
                    </g>
                    <g transform="matrix(1,0,0,1,1134.41,610.229)">
                        <path d="M0,12.091C0,14.876 -2.267,17.142 -5.053,17.142L-17.142,17.142C-19.928,17.142 -22.193,14.876 -22.193,12.091L-22.193,0.001C-22.193,-2.785 -19.928,-5.051 -17.142,-5.051L-5.053,-5.051C-2.267,-5.051 0,-2.785 0,0.001L0,12.091ZM-5.053,-7.445L-17.142,-7.445C-21.247,-7.445 -24.588,-4.105 -24.588,0.001L-24.588,12.091C-24.588,16.196 -21.247,19.536 -17.142,19.536L-5.053,19.536C-0.946,19.536 2.393,16.195 2.393,12.091L2.393,0.001C2.393,-4.105 -0.946,-7.445 -5.053,-7.445" style="fill:white;fill-rule:nonzero;"/>
                    </g>
                </g>
            </g>
        </g>
    </g>
</svg>
