<?xml version="1.0" encoding="UTF-8" standalone="no"?>
<!DOCTYPE svg PUBLIC "-//W3C//DTD SVG 1.1//EN" "http://www.w3.org/Graphics/SVG/1.1/DTD/svg11.dtd">
<svg width="100%" height="100%" viewBox="0 0 61 61" version="1.1" xmlns="http://www.w3.org/2000/svg" xmlns:xlink="http://www.w3.org/1999/xlink" xml:space="preserve" xmlns:serif="http://www.serif.com/" style="fill-rule:evenodd;clip-rule:evenodd;stroke-linejoin:round;stroke-miterlimit:2;">
    <g transform="matrix(1,0,0,1,-432.896,-7446.42)">
        <g transform="matrix(1,0,0,7.1821,0,0)">
            <g transform="matrix(0.852963,0,0,0.118762,-572.875,967.814)">
                <g transform="matrix(1,0,0,1,1210.57,582.536)">
                    <path d="M0,67.477L-29.786,37.691C-31.969,35.508 -31.969,31.969 -29.786,29.787L0,-0.001C2.183,-2.183 5.722,-2.183 7.904,-0.001L37.691,29.787C39.874,31.969 39.874,35.508 37.691,37.691L7.904,67.477C5.722,69.66 2.183,69.66 0,67.477" style="fill:rgb(48,216,164);fill-rule:nonzero;"/>
                </g>
                <g transform="matrix(1,0,0,1,1211.42,621.344)">
                    <path d="M0,-10.168L0,-0.079C2.766,-1.779 5.448,-3.429 8.206,-5.124C5.437,-6.826 2.753,-8.476 0,-10.168M3.993,6.319C-0.266,6.177 -3.552,6.087 -6.834,5.943C-7.745,5.903 -8.679,5.808 -9.551,5.558C-11.441,5.017 -12.602,3.752 -12.884,1.758C-13.4,-1.897 -13.363,-5.566 -13.153,-9.237C-13.095,-10.272 -12.913,-11.299 -12.8,-12.33C-12.581,-14.32 -10.663,-15.763 -8.752,-15.98C-4.503,-16.462 -0.238,-16.487 4.027,-16.444C6.925,-16.415 9.822,-16.306 12.719,-16.192C13.632,-16.156 14.55,-16.044 15.448,-15.874C17.466,-15.491 18.621,-14.266 18.975,-12.248C19.448,-9.543 19.57,-6.812 19.468,-4.078C19.393,-2.046 19.222,-0.01 18.958,2.007C18.687,4.077 17.112,5.558 15.001,5.704C11.015,5.981 7.021,6.155 3.993,6.319" style="fill:white;fill-rule:nonzero;"/>
                </g>
            </g>
        </g>
    </g>
</svg>
