<?xml version="1.0" encoding="UTF-8" standalone="no"?>
<!DOCTYPE svg PUBLIC "-//W3C//DTD SVG 1.1//EN" "http://www.w3.org/Graphics/SVG/1.1/DTD/svg11.dtd">
<svg width="100%" height="100%" viewBox="0 0 61 61" version="1.1" xmlns="http://www.w3.org/2000/svg" xmlns:xlink="http://www.w3.org/1999/xlink" xml:space="preserve" xmlns:serif="http://www.serif.com/" style="fill-rule:evenodd;clip-rule:evenodd;stroke-linejoin:round;stroke-miterlimit:2;">
    <g transform="matrix(1,0,0,1,-590.887,-7446.42)">
        <g transform="matrix(1,0,0,7.1821,0,0)">
            <g transform="matrix(0.852963,0,0,0.118762,-563.102,967.814)">
                <g transform="matrix(1,0,0,1,1384.34,582.536)">
                    <path d="M0,67.478L-29.786,37.691C-31.969,35.508 -31.969,31.969 -29.786,29.787L0,0C2.183,-2.183 5.722,-2.183 7.904,0L37.691,29.787C39.874,31.969 39.874,35.508 37.691,37.691L7.904,67.478C5.722,69.661 2.183,69.661 0,67.478" style="fill:rgb(48,216,164);fill-rule:nonzero;"/>
                </g>
                <g transform="matrix(1,0,0,1,1380.54,606.436)">
                    <path d="M0,19.52C0.033,19.517 0.066,19.513 0.1,19.51C0.232,18.022 0.374,16.535 0.493,15.045C0.536,14.513 0.692,14.066 1.106,13.699C2.531,12.431 3.941,11.148 5.357,9.872C7.896,7.582 10.437,5.293 12.976,3.003C13.488,2.541 14,2.078 14.499,1.6C14.576,1.527 14.616,1.373 14.601,1.265C14.594,1.217 14.392,1.142 14.309,1.169C13.971,1.284 13.618,1.388 13.319,1.576C9.767,3.801 6.224,6.042 2.677,8.278C1.092,9.278 -0.493,10.279 -2.082,11.272C-2.413,11.48 -2.59,11.713 -2.425,12.125C-2.268,12.522 -2.152,12.935 -2.02,13.341C-1.346,15.401 -0.673,17.46 0,19.52M20.474,-1.78C20.304,-0.965 20.074,0.145 19.839,1.253C18.405,8.009 16.972,14.765 15.53,21.52C15.448,21.903 15.347,22.293 15.181,22.645C14.821,23.407 14.178,23.691 13.385,23.424C12.987,23.291 12.597,23.083 12.258,22.835C10.094,21.252 7.945,19.648 5.791,18.052C5.244,17.647 5.2,17.653 4.717,18.124C3.668,19.147 2.632,20.181 1.562,21.179C1.271,21.451 0.901,21.682 0.526,21.809C-0.204,22.058 -0.673,21.781 -0.912,21.046C-1.798,18.325 -2.694,15.607 -3.556,12.877C-3.729,12.328 -4.032,12.042 -4.578,11.879C-6.674,11.253 -8.76,10.595 -10.845,9.936C-11.155,9.837 -11.464,9.701 -11.736,9.525C-12.228,9.209 -12.329,8.646 -11.889,8.275C-11.421,7.881 -10.873,7.543 -10.305,7.317C-7.708,6.282 -5.092,5.294 -2.482,4.289C4.331,1.663 11.146,-0.964 17.959,-3.59C18.052,-3.626 18.143,-3.665 18.235,-3.697C19.574,-4.171 20.495,-3.509 20.474,-1.78" style="fill:white;fill-rule:nonzero;"/>
                </g>
            </g>
        </g>
    </g>
</svg>
