<?xml version="1.0" encoding="UTF-8" standalone="no"?>
<!DOCTYPE svg PUBLIC "-//W3C//DTD SVG 1.1//EN" "http://www.w3.org/Graphics/SVG/1.1/DTD/svg11.dtd">
<svg width="100%" height="100%" viewBox="0 0 51 51" version="1.1" xmlns="http://www.w3.org/2000/svg" xmlns:xlink="http://www.w3.org/1999/xlink" xml:space="preserve" xmlns:serif="http://www.serif.com/" style="fill-rule:evenodd;clip-rule:evenodd;stroke-linejoin:round;stroke-miterlimit:2;">
    <g transform="matrix(1,0,0,1,-1482.17,-68.8184)">
        <g transform="matrix(1,0,0,5.06007,3.90621,0)">
            <g transform="matrix(1.496,0,0,0.295647,-881.486,-36.3741)">
                <path d="M1594.27,169.034C1603.59,169.034 1611.16,176.603 1611.16,185.926C1611.16,195.25 1603.59,202.819 1594.27,202.819C1584.95,202.819 1577.38,195.25 1577.38,185.926C1577.38,176.603 1584.95,169.034 1594.27,169.034ZM1597.41,187.477L1591.14,187.477C1589.03,187.48 1587.3,189.213 1587.29,191.32L1587.29,195.231L1601.25,195.231L1601.25,191.32C1601.25,189.213 1599.51,187.48 1597.41,187.477ZM1594.27,176.622C1596.84,176.622 1598.92,178.706 1598.92,181.274C1598.92,183.842 1596.84,185.926 1594.27,185.926C1591.7,185.926 1589.62,183.842 1589.62,181.274C1589.62,178.706 1591.7,176.622 1594.27,176.622Z" style="fill:rgb(48,216,164);"/>
            </g>
        </g>
    </g>
</svg>
